# xmcd CD database file
#
# Track frame offsets:
#	150
#	14825
#	32513
#	51642
#	67787
#	88190
#	104759
#	120189
#	138963
#	159810
#	178434
#	192090
#	212079
#	231155
#	249544
#	274373
#	292195
#	310034
#	339464
#
# Disc length: 4628 seconds
#
# Revision: 1
# Processed by: cddbd v1.5.1PL0 Copyright (c) Steve Scherf et al.
# Submitted via: CDex 1.51
#
DISCID=1d121213
DTITLE=Shania Twain - Millenium Hits
DYEAR=2000
DGENRE=Country
TTITLE0=I'm Holding On To Love (To Save My Love)
TTITLE1=Man! I Feel Like A Woman
TTITLE2=Don't Be Stupid (You Know I Love You) (Dance Mix)
TTITLE3=Honey I'm Home
TTITLE4=If Your Not In It For Love I'm Outta Here
TTITLE5=When
TTITLE6=You've Got A Way (Notting Hill Remix) 
TTITLE7=From The Moment On (Live) with Backstreet Boys
TTITLE8=That Don't Impress Me Much (Dance Version)
TTITLE9=Rock This Coutry
TTITLE10=Come On Over (Live)
TTITLE11=Whose Bed Have Your Bots Been
TTITLE12=I Won't Leavy You Lonely
TTITLE13=Man! I Feel Like A Woman (Live Awards)
TTITLE14=You've Got A Friend (vs C Dion, G Estefan)
TTITLE15=From This Moment
TTITLE16=Na Laetha Geal M'oige
TTITLE17=You're Still The One And
TTITLE18=Amneris' Letter (feat Elton John)
EXTD=YEAR: 2000
EXTT0=
EXTT1=
EXTT2=
EXTT3=
EXTT4=
EXTT5=
EXTT6=
EXTT7=
EXTT8=
EXTT9=
EXTT10=
EXTT11=
EXTT12=
EXTT13=
EXTT14=
EXTT15=
EXTT16=
EXTT17=
EXTT18=
PLAYORDER=
